<svg width="22" height="22" viewBox="0 0 22 22" fill="none" xmlns="http://www.w3.org/2000/svg">
<path d="M15.24 21.5H13.2595L16.4587 15.9219C15.8884 15.7891 15.408 15.5664 15.0173 15.2539C14.6267 14.9336 14.3298 14.5312 14.1267 14.0469C13.9314 13.5625 13.8337 13.0039 13.8337 12.3711C13.8337 11.1836 14.1931 10.2656 14.9119 9.61719C15.6384 8.96094 16.6462 8.63281 17.9353 8.63281H21.158V21.5H19.3767V16.1445H18.1228L15.24 21.5ZM15.6619 12.3945C15.6619 13.1445 15.865 13.7109 16.2712 14.0938C16.6775 14.4766 17.2908 14.668 18.1111 14.668H19.3767V10.0859H18.1462C17.3259 10.0859 16.7048 10.2852 16.283 10.6836C15.8689 11.082 15.6619 11.6523 15.6619 12.3945Z" fill="white"/>
<path d="M12.7194 13.57L10.1794 11.06L10.2094 11.03C11.9494 9.09 13.1894 6.86 13.9194 4.5H16.8494V2.5H9.84937V0.5H7.84937V2.5H0.849365V4.49H12.0194C11.3494 6.42 10.2894 8.25 8.84937 9.85C7.91937 8.82 7.14937 7.69 6.53937 6.5H4.53937C5.26937 8.13 6.26937 9.67 7.51937 11.06L2.42937 16.08L3.84937 17.5L8.84937 12.5L11.9594 15.61L12.7194 13.57Z" fill="white"/>
</svg>
