<svg id="eyQdhMBkW0p1" xmlns="http://www.w3.org/2000/svg" xmlns:xlink="http://www.w3.org/1999/xlink" viewBox="0 0 300 300" shape-rendering="geometricPrecision" text-rendering="geometricPrecision" width="300" height="300"><rect width="292.707143" height="292.707143" rx="25" ry="25" transform="matrix(.854096 0 0 0.854096 25 21.8856)" fill="none" stroke="#fff" stroke-width="15" stroke-linecap="round"/><g transform="matrix(1.128962 0 0 0.833333-36.007325 21.88565)"><line x1="0" y1="-150" x2="0" y2="150" transform="translate(88.895517 150)" fill="none" stroke="#fff" stroke-width="15"/><path d="M88.895517,150c0,0,22.291884-3.354684,44.371344-25.745696s15.882923-124.254304,15.882923-124.254304" fill="none" stroke="#fff" stroke-width="15"/><path d="M88.895517,150c0,0,22.291884-3.354684,44.371344-25.745696s15.882923-124.254304,15.882923-124.254304" transform="matrix(1 0 0-1 0 300)" fill="none" stroke="#fff" stroke-width="15"/></g><path d="M265.578618,63.404674c0,0-2.319674-27.372616-8.802196-28.847979-21.898961-4.984004-58.74792-8.085416-79.084293,11.077234s-27.767959,79.796932-27.767959,79.796932-4.462468,107.551642,27.767959,127.584159c17.127723,10.645574,45.100251,13.781767,69.12703,4.389018s18.344635-87.868159,18.759459-101.238777-36.373707-7.80471-52.561755-9.279662" transform="matrix(.870596 0 0 0.964519 13.686343 5.391978)" fill="none" stroke="#fff" stroke-width="15"/></svg>
